HIERARCHY
ROOT Torso
{
	OFFSET 0.000000 0.000000 0.000000
	CHANNELS 6 Xposition Yposition Zposition Zrotation Yrotation Xrotation
	JOINT LHip
	{
		OFFSET 0.000000 -0.010000 -0.060000
		CHANNELS 6 Xposition Yposition Zposition Zrotation Yrotation Xrotation
		JOINT LeftThigh
		{
			OFFSET 0.055000 0.000000 -0.055000
			CHANNELS 6 Xposition Yposition Zposition Zrotation Yrotation Xrotation
			JOINT LeftLeg
			{
				OFFSET 0.000000 0.015000 -0.120000
				CHANNELS 6 Xposition Yposition Zposition Zrotation Yrotation Xrotation
				JOINT LeftFoot
				{
					OFFSET 0.000000 -0.010000 -0.100000
					CHANNELS 6 Xposition Yposition Zposition Zrotation Yrotation Xrotation
					End Site
					{
						OFFSET 0.000000 0.090000 -0.035000
					}
				}
			}
		}
	}
	JOINT RHip
	{
		OFFSET 0.000000 -0.010000 -0.060000
		CHANNELS 6 Xposition Yposition Zposition Zrotation Yrotation Xrotation
		JOINT RightThigh
		{
			OFFSET -0.055000 0.000000 -0.055000
			CHANNELS 6 Xposition Yposition Zposition Zrotation Yrotation Xrotation
			JOINT RightLeg
			{
				OFFSET 0.000000 0.015000 -0.120000
				CHANNELS 6 Xposition Yposition Zposition Zrotation Yrotation Xrotation
				JOINT RightFoot
				{
					OFFSET 0.000000 -0.010000 -0.100000
					CHANNELS 6 Xposition Yposition Zposition Zrotation Yrotation Xrotation
					End Site
					{
						OFFSET 0.000000 0.090000 -0.035000
					}
				}
			}
		}
	}
	JOINT Neck
	{
		OFFSET 0.000000 -0.000000 0.040000
		CHANNELS 6 Xposition Yposition Zposition Zrotation Yrotation Xrotation
		JOINT Head
		{
			OFFSET 0.000000 -0.000000 0.100000
			CHANNELS 6 Xposition Yposition Zposition Zrotation Yrotation Xrotation
			End Site
			{
				OFFSET 0.000000 -0.000000 0.070000
			}
		}
	}
	JOINT LeftUpperarm
	{
		OFFSET 0.098000 -0.000000 0.075000
		CHANNELS 6 Xposition Yposition Zposition Zrotation Yrotation Xrotation
		JOINT LeftLowerarm
		{
			OFFSET 0.000000 0.090000 0.009000
			CHANNELS 6 Xposition Yposition Zposition Zrotation Yrotation Xrotation
			End Site
			{
				OFFSET 0.000000 0.105000 0.000000
			}
		}
	}
	JOINT RightUpperarm
	{
		OFFSET -0.098000 -0.000000 0.075000
		CHANNELS 6 Xposition Yposition Zposition Zrotation Yrotation Xrotation
		JOINT RightLowerarm
		{
			OFFSET 0.000000 0.090000 0.009000
			CHANNELS 6 Xposition Yposition Zposition Zrotation Yrotation Xrotation
			End Site
			{
				OFFSET 0.000000 0.105000 0.000000
			}
		}
	}
}
MOTION
Frames: 6
Frame Time: 0.041667
0.000000 0.000000 0.000000 -181.777685 4.774074 -11.463217 0.000000 -0.010000 -0.060000 -53.502508 23.790030 25.422128 0.055000 0.000000 -0.055000 -111.286868 -9.078239 48.324879 -0.000000 0.015000 -0.120000 -1.489229 1.806717 -11.147995 -0.000000 -0.010000 -0.100000 -9.074096 154.808259 -26.011322 -0.000000 -0.010000 -0.060000 59.443806 -20.378240 24.042568 -0.055000 0.000000 -0.055000 111.616349 15.916306 -6.701230 0.000000 0.015000 -0.120000 -2.848458 -0.595586 1.623138 0.000000 -0.010000 -0.100000 24.044499 -156.404884 -13.800920 0.000000 -0.000000 0.040000 0.677963 -1.149813 18.027227 -0.000000 -0.000000 0.100000 -5.232018 -1.314463 2.677553 0.098000 -0.000000 0.075000 -1.079231 -182.424053 44.579607 0.000000 0.090000 0.009000 1.702857 -0.842690 18.172464 -0.098000 -0.000000 0.075000 34.741586 -186.477019 62.970403 -0.000000 0.090000 0.009000 -29.987239 14.278055 63.511559 
0.000000 0.000000 0.000000 -181.946486 4.840339 -11.569277 -0.000000 -0.010000 -0.060000 -53.519672 23.821581 25.383075 0.055000 0.000000 -0.055000 -111.441824 -8.863742 48.546946 -0.000000 0.015000 -0.120000 -1.514100 1.810407 -11.487961 -0.000000 -0.010000 -0.100000 -8.860452 154.818245 -26.551537 0.000000 -0.010000 -0.060000 59.525078 -20.407111 23.932976 -0.055000 0.000000 -0.055000 111.891906 15.741467 -7.819583 -0.000000 0.015000 -0.120000 -2.893234 -0.591962 2.645417 0.000000 -0.010000 -0.100000 23.426726 -156.576718 -12.468494 -0.000000 -0.000000 0.040000 0.954786 -1.018201 18.241448 0.000000 -0.000000 0.100000 -5.130882 -1.371459 2.848235 0.098000 -0.000000 0.075000 0.135335 -183.033224 44.994100 0.000000 0.090000 0.009000 1.600018 -0.823565 17.940880 -0.098000 -0.000000 0.075000 34.881790 -186.503055 62.791022 -0.000000 0.090000 0.009000 -30.087342 14.335770 63.638758 
0.000000 0.000000 0.000000 -182.118388 4.861695 -11.697039 -0.000000 -0.010000 -0.060000 -53.543759 23.846810 25.342080 0.055000 0.000000 -0.055000 -111.670396 -8.618803 48.711482 -0.000000 0.015000 -0.120000 -1.537389 1.813425 -11.975923 -0.000000 -0.010000 -0.100000 -8.634770 154.844692 -26.894099 -0.000000 -0.010000 -0.060000 59.614069 -20.439689 23.811617 -0.055000 0.000000 -0.055000 112.247868 15.511273 -8.994235 -0.000000 0.015000 -0.120000 -2.938653 -0.592957 3.737817 0.000000 -0.010000 -0.100000 22.544071 -156.851155 -10.625322 0.000000 0.000000 0.040000 1.242634 -0.866135 18.503109 -0.000000 -0.000000 0.100000 -5.012940 -1.407042 2.965377 0.098000 0.000000 0.075000 1.474715 -183.665617 45.459803 -0.000000 0.090000 0.009000 1.481026 -0.800863 17.668043 -0.098000 -0.000000 0.075000 35.054467 -186.521224 62.537533 -0.000000 0.090000 0.009000 -30.105804 14.341273 63.695646 
0.000000 0.000000 0.000000 -182.270920 4.880664 -11.844373 0.000000 -0.010000 -0.060000 -53.572654 23.869703 25.301695 0.055000 0.000000 -0.055000 -111.887610 -8.396959 48.810864 0.000000 0.015000 -0.120000 -1.557269 1.815140 -12.555600 -0.000000 -0.010000 -0.100000 -8.420173 154.880304 -26.907532 0.000000 -0.010000 -0.060000 59.698114 -20.478359 23.688848 -0.055000 0.000000 -0.055000 112.650358 15.284864 -10.192193 -0.000000 0.015000 -0.120000 -2.981021 -0.597801 4.827745 0.000000 -0.010000 -0.100000 21.546421 -157.162858 -8.724752 0.000000 0.000000 0.040000 1.545529 -0.717719 18.796276 -0.000000 -0.000000 0.100000 -4.889376 -1.480574 3.123172 0.098000 0.000000 0.075000 2.552495 -184.072546 45.882182 0.000000 0.090000 0.009000 1.457925 -0.797078 17.534113 -0.098000 -0.000000 0.075000 35.201969 -186.549514 62.252619 0.000000 0.090000 0.009000 -30.009416 14.283464 63.654494 
0.000000 0.000000 0.000000 -182.409559 4.852887 -12.024111 0.000000 -0.010000 -0.060000 -53.608693 23.886882 25.261409 0.055000 0.000000 -0.055000 -112.067428 -8.273987 48.812268 0.000000 0.015000 -0.120000 -1.570152 1.815365 -13.202827 -0.000000 -0.010000 -0.100000 -8.310567 154.902898 -26.775158 -0.000000 -0.010000 -0.060000 59.788792 -20.517991 23.562015 -0.055000 0.000000 -0.055000 113.024468 15.013335 -11.422392 0.000000 0.015000 -0.120000 -3.021619 -0.600837 5.870431 0.000000 -0.010000 -0.100000 20.509103 -157.509640 -6.727029 -0.000000 -0.000000 0.040000 1.839426 -0.545373 19.156696 -0.000000 -0.000000 0.100000 -4.758988 -1.520006 3.199251 0.098000 -0.000000 0.075000 3.183631 -184.113637 46.181689 -0.000000 0.090000 0.009000 1.544632 -0.817583 17.595045 -0.098000 -0.000000 0.075000 35.342028 -186.585113 61.907919 0.000000 0.090000 0.009000 -29.875551 14.201182 63.556959 
0.000000 0.000000 0.000000 -182.539278 4.787564 -12.216172 -0.000000 -0.010000 -0.060000 -53.648790 23.893938 25.226313 0.055000 0.000000 -0.055000 -112.335302 -8.132383 48.722092 0.000000 0.015000 -0.120000 -1.578669 1.814756 -13.893354 -0.000000 -0.010000 -0.100000 -8.173014 154.906436 -26.639372 0.000000 -0.010000 -0.060000 59.877174 -20.562418 23.437205 -0.055000 0.000000 -0.055000 113.379112 14.694918 -12.609345 0.000000 0.015000 -0.120000 -3.058835 -0.600104 6.776205 0.000000 -0.010000 -0.100000 19.407257 -157.912184 -4.574485 -0.000000 0.000000 0.040000 2.155437 -0.357886 19.545138 0.000000 -0.000000 0.100000 -4.626030 -1.558394 3.253733 0.098000 0.000000 0.075000 3.860915 -184.132133 46.510962 -0.000000 0.090000 0.009000 1.634600 -0.838363 17.640125 -0.098000 -0.000000 0.075000 35.491719 -186.607530 61.525190 -0.000000 0.090000 0.009000 -29.701730 14.077337 63.383199 
